<?xml version="1.0" encoding="UTF-8"?>
<svg id="Template" xmlns="http://www.w3.org/2000/svg" viewBox="0 0 1920 1080">
  <defs>
    <style>

      @import url('https://fonts.googleapis.com/css2?family=JetBrains+Mono:wght@100..800');
      @import url('https://fonts.googleapis.com/css2?family=Roboto:wght@100;300;400;500;700;900');

      .mono {
        font-family: 'JetBrains Mono';
        font-size: 30px;
        font-variation-settings: 'wght' 500;
        fill: #727182;
      }

      .title {
        font-family: Roboto;
        font-size: 111px;
        font-weight: 700;
      }

      .description {
        font-family: Roboto;
        font-size: 35px;
        font-weight: 300;
      }

      .heading {
        font-family: Roboto;
        font-size: 50px;
        font-weight: 500;
      }

      .roText {
        font-family: 'JetBrains Mono';
        font-weight: 500;
        font-size: 50px;
      }

      .mcBorder {
        stroke: #cacacc;
        stroke-width: 20px;
      }

      .nodeBox {
        stroke: #cacacc;
        stroke-width: 15px;
      }

      .cBack {
        fill: #cacacc;
      }

      .cDark {
        fill: #403e57;
      }

      .cLight {
        fill: #e6e6e6;
      }

    </style>
  </defs>
  <rect id="Frame" width="1920" height="1080"/>
  <rect id="Background" class="cLight" x="30" y="30" width="1860" height="1020" rx="30" ry="30"/>
  <g id="ROMarker" style="display: none">
    <path id="FrameCorner" d="m300,1050v30H0v-150h30c0,16.57,13.43,30,30,30h180c16.57,0,30,13.43,30,30v30c0,16.57,13.43,30,30,30Z"/>
    <text id="ROText" class="roText cLight" transform="translate(120.21 1028.25)"><tspan x="0" y="0">RO</tspan></text>
  </g>
  <path id="TCPLogo" class="cDark" d="m1637.27,956.85h-5.42c0-4.48,0-11.98,2.29-18.6,2.97-8.61,9.04-13.16,17.53-13.16h139.04l-12.74-11.89,2.96-3.19,19.07,17.81-19.07,17.81-2.96-3.19,12.75-11.9h-139.05c-12.69,0-14.4,13.31-14.4,26.32h0Zm127.94,32.63h-125.94l12.75-11.9-2.96-3.19-19.07,17.81,19.07,17.81,2.96-3.19-12.74-11.89h125.93c8.5,0,14.56-4.55,17.53-13.16,2.29-6.63,2.29-14.13,2.29-18.6h-5.42c0,13.02-1.71,26.32-14.4,26.32h0Zm-91.1-7.01v-34.92h13.44v-7.11h-36.07v7.11h13.47v34.92h9.17Zm38.52-35.49c2.22-.07,4.4.6,6.21,1.89,1.7,1.26,2.89,3.09,3.36,5.16l9.07-2.01c-.79-2.97-2.4-5.65-4.64-7.74-3.47-3.04-7.98-4.56-13.53-4.56-6.36,0-11.49,1.94-15.39,5.81-3.9,3.87-5.85,9.3-5.85,16.3,0,6.61,1.94,11.82,5.82,15.64,3.88,3.81,8.83,5.72,14.86,5.72,4.87,0,8.89-1.11,12.06-3.34,3.17-2.23,5.44-5.63,6.8-10.22l-8.88-2.61c-.49,2.61-1.82,4.98-3.78,6.76-1.78,1.44-4,2.2-6.29,2.15-3.05.11-5.99-1.13-8.05-3.38-2.06-2.25-3.1-6.04-3.1-11.35,0-5.01,1.05-8.63,3.14-10.86,2.12-2.25,5.11-3.47,8.19-3.35h0Zm58.77-1.79c1.82,2.32,2.76,5.23,2.63,8.18.08,2.27-.45,4.51-1.52,6.51-.93,1.67-2.26,3.1-3.85,4.14-1.45.96-3.06,1.63-4.75,1.99-3.14.47-6.32.67-9.5.6h-5.98v15.85h-9.17v-42.03h14.71c5.58,0,9.21.21,10.9.63,2.57.61,4.87,2.06,6.53,4.12h0Zm-6.81,8.3c.05-1.41-.48-2.77-1.46-3.79-.99-1.01-2.29-1.66-3.69-1.86-2.19-.25-4.39-.34-6.59-.29h-4.43v11.92h5.02c3.61,0,6.03-.22,7.24-.66,1.14-.38,2.14-1.1,2.87-2.06.69-.95,1.06-2.1,1.04-3.27h0Z"/>
  <g id="Microcontroller">
    <rect id="MCBorder" class="mcBorder cBack" x="1680" y="120" width="120" height="120" rx="20" ry="20"/>
    <rect id="MCBackground" class="cBack" x="1680" y="120" width="120" height="120" rx="20" ry="20"/>
    <g id="Nodes"></g>
  </g>
  <text id="Next" class="description cDark" transform="translate(600 749.94)"><tspan x="0" y="0">next</tspan></text>
  <text id="Previous" class="description cDark" transform="translate(120 749.94)"><tspan x="0" y="0">prev</tspan></text>
  <text id="TitleNext" class="heading cDark" transform="translate(600 642.77)"><tspan x="0" y="0">Next</tspan></text>
  <text id="TitlePrevious" class="heading cDark" transform="translate(120 642.77)"><tspan x="0" y="0">Previous</tspan></text>
  <text id="Description" class="description cDark" transform="translate(120 389.94)"><tspan x="0" y="0">Description</tspan></text>
  <text id="Name" class="title cDark" transform="translate(120 239.96)"><tspan x="0" y="0">Name</tspan></text>
  <text id="Info" class="mono" transform="translate(120 119.68)"><tspan x="0" y="0">Info</tspan></text>
</svg>