<?xml version="1.0" encoding="UTF-8"?>
<svg id="Template" xmlns="http://www.w3.org/2000/svg" viewBox="0 0 512 512">
  <defs>
    <style>

      @import url('https://fonts.googleapis.com/css2?family=JetBrains+Mono:wght@100..800');
      @import url('https://fonts.googleapis.com/css2?family=Roboto:wght@100;300;400;500;700;900');

      .name {
        font-family: Roboto;
        font-size: 80px;
        font-weight: 700;
      }

      .type {
        font-family: 'JetBrains Mono';
        font-size: 50px;
        font-variation-settings: 'wght' 500;
      }

      .cDark {
        fill: #403e57;
      }

      .cLight {
        fill: #e6e6e6;
      }

    </style>
  </defs>
  <rect id="Frame" width="512" height="512"/>
  <rect id="Background" class="cLight" x="30" y="30" width="452" height="360" rx="30" ry="30"/>
  <text id="Name" class="name cDark" transform="translate(60 345)"><tspan x="0" y="0">Name</tspan></text>
  <text id="Type" class="type cLight" transform="translate(452 467)" text-anchor="end"><tspan x="0" y="0">Type</tspan></text>
  <path id="TCP_Logo" class="cDark" d="m67.27,106.63h-5.42c0-4.46,0-11.92,2.29-18.52,2.97-8.57,9.03-13.1,17.53-13.1h139.01l-12.74-11.84,2.96-3.17,19.07,17.73-19.07,17.73-2.96-3.17,12.74-11.85H81.67c-12.69,0-14.4,13.25-14.4,26.2h0Zm127.92,32.48h-125.91l12.74-11.85-2.96-3.18-19.06,17.73,19.07,17.73,2.96-3.18-12.74-11.84h125.9c8.5,0,14.56-4.53,17.53-13.1,2.29-6.6,2.29-14.06,2.29-18.52h-5.42c0,12.96-1.71,26.2-14.4,26.2h0Zm-91.08-6.97v-34.76h13.43v-7.08h-36.07v7.08h13.47v34.76h9.16Zm38.51-35.33c2.22-.07,4.4.59,6.21,1.88,1.7,1.25,2.89,3.08,3.36,5.14l9.07-2c-.79-2.95-2.4-5.63-4.64-7.7-3.47-3.02-7.98-4.54-13.53-4.54-6.36,0-11.49,1.93-15.39,5.78-3.9,3.85-5.85,9.26-5.85,16.22,0,6.58,1.94,11.77,5.82,15.56,3.88,3.8,8.83,5.69,14.86,5.69,4.87,0,8.89-1.11,12.06-3.32,3.17-2.22,5.44-5.61,6.79-10.17l-8.88-2.6c-.49,2.6-1.82,4.96-3.78,6.73-1.78,1.43-4,2.19-6.28,2.14-3.05.11-5.99-1.12-8.05-3.37-2.06-2.24-3.1-6.01-3.1-11.3,0-4.98,1.05-8.59,3.14-10.81,2.12-2.24,5.11-3.45,8.19-3.34h0Zm58.76-1.78c1.82,2.31,2.76,5.2,2.63,8.15.08,2.26-.45,4.49-1.52,6.48-.93,1.67-2.26,3.08-3.85,4.12-1.45.95-3.06,1.62-4.75,1.98-3.14.47-6.32.67-9.5.6h-5.97v15.78h-9.16v-41.84h14.71c5.57,0,9.21.21,10.9.63,2.57.61,4.87,2.05,6.53,4.1h0Zm-6.81,8.26c.05-1.4-.48-2.76-1.46-3.77-.99-1-2.29-1.65-3.68-1.85-2.19-.25-4.39-.34-6.59-.28h-4.43v11.87h5.01c3.61,0,6.03-.22,7.24-.66,1.14-.38,2.14-1.1,2.87-2.06.69-.94,1.06-2.09,1.04-3.26h0Z"/>
</svg>